<?xml version="1.0" encoding="UTF-8" standalone="no"?>
<!-- Created with Inkscape (http://www.inkscape.org/) -->

<svg
   width="210mm"
   height="297mm"
   viewBox="0 0 210 297"
   version="1.1"
   id="svg1839"
   xml:space="preserve"
   inkscape:version="1.2.2 (732a01da63, 2022-12-09)"
   sodipodi:docname="Arduino MEGA.svg"
   xmlns:inkscape="http://www.inkscape.org/namespaces/inkscape"
   xmlns:sodipodi="http://sodipodi.sourceforge.net/DTD/sodipodi-0.dtd"
   xmlns="http://www.w3.org/2000/svg"
   xmlns:svg="http://www.w3.org/2000/svg"><sodipodi:namedview
     id="namedview1841"
     pagecolor="#ffffff"
     bordercolor="#000000"
     borderopacity="0.25"
     inkscape:showpageshadow="2"
     inkscape:pageopacity="0.0"
     inkscape:pagecheckerboard="0"
     inkscape:deskcolor="#d1d1d1"
     inkscape:document-units="mm"
     showgrid="true"
     inkscape:zoom="0.87911561"
     inkscape:cx="344.66457"
     inkscape:cy="362.86468"
     inkscape:window-width="1366"
     inkscape:window-height="705"
     inkscape:window-x="-8"
     inkscape:window-y="-8"
     inkscape:window-maximized="1"
     inkscape:current-layer="layer1"><inkscape:grid
       type="xygrid"
       id="grid1897"
       visible="false" /></sodipodi:namedview><defs
     id="defs1836" /><g
     inkscape:label="Capa 1"
     inkscape:groupmode="layer"
     id="layer1"><path
       style="fill:#0000ff;stroke-width:0.264583"
       d="m 19.684414,53.110778 1.85702,98.422072 170.474456,1.11421 -0.74281,-98.793475 z"
       id="path2378" /><path
       style="fill:#0000ff;stroke-width:0.264583"
       d="m 20.164678,53.57183 0.300965,99.9205 172.754107,1.20385 0.30096,-4.51448 3.31062,-3.91254 0.30097,-62.90176 -4.81545,-4.213516 0.30097,-24.077226 -3.31062,0.60193 -1.20386,-2.106758 z"
       id="path2340" /></g><g
     inkscape:groupmode="layer"
     id="layer4"
     inkscape:label="Capa 2"><path
       style="fill:#e6e6e6;stroke-width:0.264583"
       d="m 60.517185,116.52027 4.655169,0.14106 0.141065,-1.55172 -4.9373,0.14107 z"
       id="path2245" /><path
       style="fill:#e6e6e6;stroke-width:0.264583"
       d="m 60.799318,118.07199 4.23197,-0.28213 v 0.98746 l -4.23197,0.28213 z"
       id="path2247" /><path
       style="fill:#e6e6e6;stroke-width:0.264583"
       d="m 60.517185,119.90584 h 4.514103 v 1.69279 l -4.23197,0.14107 z"
       id="path2249" /><path
       style="fill:#e6e6e6;stroke-width:0.264583"
       d="m 61.081448,122.44503 3.94984,-0.28213 v 1.41065 l -4.23197,0.14107 z"
       id="path2251" /><path
       style="fill:#e6e6e6;stroke-width:0.264583"
       d="m 55.015624,115.39174 h -3.385576 l 0.141065,1.12853 h 3.667707 z"
       id="path2253" /><path
       style="fill:#e6e6e6;stroke-width:0.264583"
       d="m 55.579885,118.07199 -3.949837,-0.28213 0.141065,0.98746 h 3.94984 z"
       id="path2255" /><path
       style="fill:#e6e6e6;stroke-width:0.264583"
       d="m 55.297755,120.32904 h -3.244512 l -0.141065,1.12853 3.667707,-0.14107 z"
       id="path2257" /><path
       style="fill:#e6e6e6;stroke-width:0.264583"
       d="m 55.43882,122.44503 h -3.667707 l 0.141065,0.98746 4.231971,0.28213 z"
       id="path2259" /><path
       style="fill:#e6e6e6;stroke-width:0.264583"
       d="m 24.827563,119.20052 h -3.949839 v -5.7837 h 4.655168 z"
       id="path2261" /><path
       style="fill:#e6e6e6;stroke-width:0.264583"
       d="m 29.623797,112.99363 4.373036,-0.14107 v -1.55172 l -4.937299,0.14106 z"
       id="path2263" /><path
       style="fill:#e6e6e6;stroke-width:0.264583"
       d="m 29.623797,115.67387 h 4.655169 l -0.141067,1.69279 -5.078365,-0.14106 z"
       id="path2265" /><path
       style="fill:#e6e6e6;stroke-width:0.264583"
       d="m 28.918468,119.34158 h 5.501564 l -0.282133,2.11599 -5.219431,-0.14107 z"
       id="path2267" /><path
       style="fill:#e6e6e6;stroke-width:0.264583"
       id="path2376"
       sodipodi:type="arc"
       sodipodi:cx="134.79091"
       sodipodi:cy="140.50294"
       sodipodi:rx="2.9545012"
       sodipodi:ry="2.8888454"
       sodipodi:start="3.100019"
       sodipodi:end="3.099701"
       sodipodi:arc-type="slice"
       d="m 131.83896,140.62301 a 2.9545012,2.8888454 0 0 1 2.82892,-3.0064 2.9545012,2.8888454 0 0 1 3.07496,2.76581 2.9545012,2.8888454 0 0 1 -2.82843,3.00685 2.9545012,2.8888454 0 0 1 -3.07541,-2.76534 l 2.95191,-0.12099 z" /><path
       style="fill:#e6e6e6;stroke-width:0.264583"
       d="m 30.826535,86.35144 0.185703,3.342634 -6.499571,-0.1857 0.185702,-22.655646 h 6.49957 z"
       id="path2385" /><path
       style="fill:#808080;stroke-width:0.264583"
       d="m 116.06376,89.508374 0.1857,-3.156934 -21.170025,0.1857 v 3.342637 z"
       id="path2387" /><path
       style="fill:#808080;stroke-width:0.264583"
       d="m 116.06376,88.022757 1.67132,1.85702 2.59983,0.185704 -0.3714,24.141259 -4.08545,-0.1857 z"
       id="path2391" /><path
       style="fill:#808080;stroke-width:0.264583"
       d="m 94.522328,90.436884 h -3.71404 l 0.185703,23.027046 h 4.828251 z"
       id="path2393" /><path
       style="fill:#808080;stroke-width:0.264583"
       d="m 95.450839,114.39244 v 3.34264 l 20.984331,-0.1857 -0.37141,-3.89974 z"
       id="path2395" /><path
       style="fill:#808080;stroke-width:0.264583"
       d="m 116.43517,89.13697 -0.18571,-2.971233 -20.984324,0.185703 0.185703,4.271145 z"
       id="path2397" /><path
       style="fill:#ffffff;stroke-width:0.264583"
       d="M 105.66445,135.74818 Z"
       id="path2399" /><path
       style="fill:#ffffff;stroke-width:0.264583"
       d="m 105.66445,136.67669 68.33834,0.3714 6.68528,7.42808 0.92851,-1.11421 -7.61379,-7.42808 h -68.52404 z"
       id="path2401" /><path
       style="fill:#ffffff;stroke-width:0.264583"
       d="m 78.737657,93.779519 -5.571061,-0.185701 0.185701,-2.042723 h 5.38536 z"
       id="path2405" /><path
       style="fill:#ffffff;stroke-width:0.264583"
       d="m 78.366251,89.13697 -5.013954,0.185701 V 87.46565 h 4.828254 z"
       id="path2407" /><path
       style="fill:#ffffff;stroke-width:0.264583"
       d="m 136.67669,72.795193 35.28338,0.1857 v -0.92851 h -34.91198 z"
       id="path2409" /><path
       style="fill:#ffffff;stroke-width:0.264583"
       d="m 101.28517,140.6425 -22.006246,0.14107 0.141065,-0.98746 21.865181,0.14107 z"
       id="path2411" /><path
       style="fill:#ffffff;stroke-width:0.264583"
       d="m 135.28201,132.60176 0.14106,-4.5141 1.41066,1.26959 1.41066,-1.41066 v 4.79623 l -0.70533,0.14107 0.14106,-3.38558 -0.84639,1.41066 -0.84639,-1.41066 0.28213,3.24451 z"
       id="path2413" /><path
       style="fill:#ffffff;stroke-width:0.264583"
       d="m 138.80865,128.08766 -0.14107,4.5141 3.10345,0.14106 -0.28213,-0.84639 -2.25705,0.14107 v -0.98746 h 1.12852 v -0.8464 l -0.98746,0.14107 0.14107,-0.98746 1.97492,-0.14107 v -0.84639 z"
       id="path2415" /><path
       style="fill:#ffffff;stroke-width:0.264583"
       d="m 144.73341,129.78044 0.56426,-0.84639 -0.98746,-0.70533 h -0.98746 l -0.98746,0.56426 -0.14106,1.2696 v 1.41065 l 0.56426,1.26959 h 1.41066 l 0.98746,-0.14106 v -1.12853 l -0.14107,-0.98746 -0.98746,-0.14106 -0.14107,0.56426 0.70533,0.28213 -0.28213,0.8464 -1.26959,-0.14107 -0.14107,-1.83385 0.56427,-1.12853 0.70533,0.14106 z"
       id="path2417" /><path
       style="fill:#ffffff;stroke-width:0.264583"
       d="m 145.72087,132.46069 0.14106,-3.10344 0.4232,-0.98746 1.12853,-0.4232 0.98746,0.28213 0.42319,1.12853 0.28214,3.38557 h -1.12853 l -0.28213,-2.11598 -0.98746,0.28213 0.14106,1.83385 z"
       id="path2419" /><path
       style="fill:#ffffff;stroke-width:0.264583"
       d="m 153.33842,129.78044 1.26959,-0.70533 0.14106,0.56427 -1.55172,2.11599 v 0.70532 l 2.53918,0.14107 -0.14106,-0.56426 -1.69279,-0.28213 1.83385,-2.25706 -0.14106,-0.98746 -1.12853,-0.28213 h -0.98746 l -0.70533,0.56426 -0.14106,0.56427 z"
       id="path2421" /><path
       style="fill:#ffffff;stroke-width:0.264583"
       d="m 158.69891,128.22872 -2.53918,0.14107 0.14107,2.25705 1.69278,-0.28213 0.4232,0.84639 -0.56426,0.98746 -0.8464,-0.14106 -0.42319,-0.4232 v 0.84639 l 1.41065,0.4232 0.8464,-0.4232 0.56426,-1.26959 -0.42319,-1.41066 -0.70533,-0.42319 -1.2696,0.14106 v -0.56426 h 1.83386 z"
       id="path2423" /><path
       style="fill:#ffffff;stroke-width:0.264583"
       d="m 161.94342,128.36979 -1.69278,1.55172 -0.56427,1.26959 0.4232,1.41066 1.69279,0.14106 0.70533,-0.42319 v -1.26959 l -0.98746,-0.8464 h -0.4232 l 1.55172,-1.83385 z"
       id="path2425" /><path
       style="fill:#ffffff;stroke-width:0.264583"
       d="m 165.329,128.22872 h -1.55172 l -0.4232,1.41066 0.28213,2.39812 0.56427,0.70532 1.55172,-0.28213 0.56426,-0.42319 -0.14107,-2.68025 z"
       id="path2429" /><path
       style="fill:#999999;stroke-width:0.264583"
       d="M 132.60176,62.351041 V 60.376119 H 97.053203 l 0.141065,1.692789 z"
       id="path2433" /><path
       style="fill:#999999;stroke-width:0.264583"
       d="m 144.45128,71.802442 -1.97492,0.141065 0.28213,-4.373036 1.69279,0.141065 z"
       id="path2437" /><path
       style="fill:#999999;stroke-width:0.264583"
       d="m 144.59234,65.877683 h -1.83385 v -2.398118 l 0.4232,-0.705328 1.41065,-0.141066 z"
       id="path2439" /><path
       style="fill:#999999;stroke-width:0.264583"
       d="m 137.96225,63.479565 1.12853,-0.987459 0.70533,0.141065 v 3.385577 l -1.55172,0.141065 z"
       id="path2441" /><path
       style="fill:#999999;stroke-width:0.264583"
       d="m 139.79611,67.570471 -1.83386,0.141065 0.14107,2.962381 1.97492,-0.141068 z"
       id="path2443" /><path
       style="fill:#999999;stroke-width:0.264583"
       d="m 148.96538,67.711536 h -1.69279 v 3.667707 l 1.97492,-0.141065 z"
       id="path2445" /><path
       style="fill:#999999;stroke-width:0.264583"
       d="m 148.82431,66.018748 h -1.69279 v -2.962381 h 1.55173 z"
       id="path2447" /><path
       style="fill:#999999;stroke-width:0.264583"
       d="m 152.06882,62.633171 v 3.103446 l 1.83386,0.141066 -0.28213,-2.257052 z"
       id="path2449" /><path
       style="fill:#999999;stroke-width:0.264583"
       d="m 153.33842,67.570471 -1.55173,0.141065 0.14107,3.808775 1.83385,-0.141068 z"
       id="path2451" /><path
       style="fill:#999999;stroke-width:0.264583"
       d="m 157.85252,67.852601 -1.83386,0.141066 v 3.244511 l 1.97492,-0.141065 z"
       id="path2453" /><path
       style="fill:#999999;stroke-width:0.264583"
       d="m 158.13465,65.877683 h -2.11599 v -1.974922 l 0.98746,-1.128524 0.98746,1.128524 z"
       id="path2455" /><path
       style="fill:#999999;stroke-width:0.264583"
       d="m 160.53277,63.761696 v 1.833853 l 2.11598,-0.141065 -0.28213,-2.115984 -0.56426,-0.705329 -0.70533,0.141066"
       id="path2457" /><path
       style="fill:#999999;stroke-width:0.264583"
       d="m 165.18793,62.774237 v 3.244511 l 2.07003,-0.0032 -0.0925,-3.051141 z"
       id="path2459" /><path
       style="fill:#999999;stroke-width:0.264583"
       d="m 169.29205,63.241813 0.18492,2.403931 h 2.12655 v -2.403931 z"
       id="path2461" /><path
       style="fill:#999999;stroke-width:0.264583"
       d="m 162.4501,71.748022 -0.0925,-3.513434 -1.5718,0.09246 v 2.958682 z"
       id="path2465" /><path
       style="fill:#999999;stroke-width:0.264583"
       d="m 122.69282,66.477871 0.0925,-0.924586 -53.995937,0.184917 0.09246,0.647211 z"
       id="path2469" /><path
       style="fill:#ffffff;stroke-width:0.264583"
       d="m 59.913297,81.641113 h 1.201965 v 5.455071 l -1.294424,-1.109507 z"
       id="path2475" /><path
       style="fill:#ffffff;stroke-width:0.264583"
       d="m 58.803793,81.548654 v 6.564575 l -0.83213,-0.09246 -0.09246,-6.472116 z"
       id="path2477" /><path
       style="fill:#ffffff;stroke-width:0.264583"
       d="m 56.862156,81.456196 -0.09246,7.489163 -1.201963,-0.277376 -0.18492,-7.211787 z"
       id="path2479" /><path
       style="fill:#ffffff;stroke-width:0.264583"
       d="m 54.36577,81.548654 0.09246,15.163242 h -1.294424 l -0.09246,-15.440618 z"
       id="path2481" /><path
       style="fill:#ffffff;stroke-width:0.264583"
       d="M 52.14676,81.548654 52.23922,96.43452 50.852338,96.34206 V 81.456196 Z"
       id="path2483" /><path
       style="fill:#ffffff;stroke-width:0.264583"
       d="m 50.020206,81.548654 0.184917,14.60849 h -1.294421 v -14.60849 z"
       id="path2485" /><path
       style="fill:#ffffff;stroke-width:0.264583"
       d="m 47.893655,81.456196 -0.09246,14.516031 -1.017048,0.09246 0.184918,-14.608489 z"
       id="path2487" /><path
       style="fill:#ffffff;stroke-width:0.264583"
       d="m 46.136938,81.548654 -0.277376,14.700949 h -1.5718 l 0.369835,-15.070783 1.386882,-0.184918 z"
       id="path2489" /><path
       style="fill:#ffffff;stroke-width:0.264583"
       d="m 55.382815,91.441745 v 4.807858 h 1.294424 l -0.184917,-7.026868 z"
       id="path2491" /><path
       style="fill:#ffffff;stroke-width:0.264583"
       d="m 57.786746,91.256828 v 5.177692 l 1.109506,-0.09246 -0.18492,-7.581619 z"
       id="path2493" /><path
       style="fill:#ffffff;stroke-width:0.264583"
       d="m 60.005756,91.441745 -0.09246,4.438023 1.386882,-0.09246 -0.184917,-4.807857 z"
       id="path2495" /><path
       style="fill:#ffffff;stroke-width:0.264583"
       d="m 65.368365,79.329644 5.732447,-0.277376 0.09246,2.496386 -5.547526,0.09246 z"
       id="path2497" /><path
       style="fill:#ffffff;stroke-width:0.264583"
       d="m 71.378187,85.894218 -0.184917,-2.496388 -5.732444,0.184917 0.09246,2.219013 z"
       id="path2499" /><path
       style="fill:#ffffff;stroke-width:0.264583"
       d="m 71.378187,89.407652 -0.184917,-2.034093 -5.917364,0.09246 -0.09246,2.311469 z"
       id="path2501" /><path
       style="fill:#ffffff;stroke-width:0.264583"
       d="m 71.285729,93.753217 -0.184917,-2.403931 -5.732447,0.184918 0.09246,2.219013 z"
       id="path2503" /><path
       style="fill:#ffffff;stroke-width:0.264583"
       d="m 71.563105,98.191237 -0.184918,-2.588845 -5.917361,0.09246 0.09246,2.496386 z"
       id="path2505" /><path
       style="fill:#ffffff;stroke-width:0.264583"
       d="m 71.840481,101.88959 0.09246,-2.40393 -6.379654,0.277376 v 2.126554 z"
       id="path2507" /><path
       style="fill:#ffffff;stroke-width:0.264583"
       d="m 71.840481,105.58794 -0.184918,-2.49639 -6.102278,0.18492 v 2.58885 z"
       id="path2509" /><path
       style="fill:#ffffff;stroke-width:0.264583"
       d="m 79.237185,85.616843 -5.917363,0.184917 -0.184918,-2.40393 6.19474,0.09246 z"
       id="path2511" /><path
       style="fill:#ffffff;stroke-width:0.264583"
       d="m 78.95981,81.82603 h -5.732447 l 0.09246,-2.403927 5.547529,0.09246 z"
       id="path2513" /><path
       style="fill:#ffffff;stroke-width:0.264583"
       d="m 83.675208,112.15252 -0.09246,2.95868 -5.824902,0.0925 v -2.68131 z"
       id="path2517" /><path
       style="fill:#ffffff;stroke-width:0.264583"
       d="m 83.952584,116.77546 -6.009822,0.0924 0.09246,1.94164 6.009823,-0.18492 z"
       id="path2519" /><path
       style="fill:#ffffff;stroke-width:0.264583"
       d="m 75.261456,118.80955 -0.09246,-1.84918 h -5.824902 v 1.66426 z"
       id="path2521" /><path
       style="fill:#ffffff;stroke-width:0.264583"
       d="m 75.168997,114.92628 0.09246,-2.40393 -6.194737,0.18492 0.09246,2.40393 z"
       id="path2523" /><path
       style="fill:#ffffff;stroke-width:0.264583"
       d="m 72.857528,127.96297 -0.369834,4.53048 -2.496389,0.0925 -0.09246,-4.90032 z"
       id="path2525" /><path
       style="fill:#ffffff;stroke-width:0.264583"
       d="m 75.353917,125.92888 v 6.00982 h 2.496386 l -0.09246,-5.91737 z"
       id="path2527" /><path
       style="fill:#ffffff;stroke-width:0.264583"
       d="m 78.95981,126.11379 -0.09246,5.63999 h 1.756717 l 0.184917,-5.45507 z"
       id="path2529" /><path
       style="fill:#ffffff;stroke-width:0.264583"
       d="m 75.353917,122.69282 -0.09246,2.12655 h 5.732446 v -2.49639 z"
       id="path2531" /><path
       style="fill:#ffffff;stroke-width:0.264583"
       d="m 75.168997,123.70987 v -1.29443 l 5.732447,-0.0925 v 1.20197 z"
       id="path2533" /><path
       style="fill:#ffffff;stroke-width:0.264583"
       d="m 80.901444,133.23312 v 2.49639 H 74.98408 v -2.49639 z"
       id="path2535" /><path
       style="fill:#ffffff;stroke-width:0.264583"
       d="m 46.784148,116.03578 v 4.7154 l 2.588848,0.0925 -0.09246,-4.99277 z"
       id="path2537" /><path
       style="fill:#ffffff;stroke-width:0.264583"
       d="m 37.445812,109.37875 v 1.94164 l 5.732444,-0.0925 -0.184917,-1.94164 z"
       id="path2539" /><path
       style="fill:#ffffff;stroke-width:0.264583"
       d="m 44.842514,109.56367 v 2.03409 h 5.639988 l -0.18492,-2.03409 z"
       id="path2541" /><path
       style="fill:#ffffff;stroke-width:0.264583"
       d="m 52.516595,109.28629 0.09246,2.49639 5.824903,-0.0925 v -2.40393 z"
       id="path2543" /><path
       style="fill:#ffffff;stroke-width:0.264583"
       d="m 60.652969,109.9335 v 1.75672 h 5.917361 l 0.09246,-2.21901 z"
       id="path2545" /><path
       style="fill:#ffffff;stroke-width:0.264583"
       d="m 60.652969,109.9335 v -0.64721 h 6.00982 l -0.09246,1.47934 z"
       id="path2547" /><path
       style="fill:#666666;stroke-width:0.264583"
       d="m 64.99853,146.54719 36.42876,0.18491 -0.0924,1.10951 -35.874014,-0.27738 z"
       id="path2603" /><path
       style="fill:#666666;stroke-width:0.264583"
       d="m 105.49548,147.10194 0.0925,0.83213 35.87401,0.0925 -0.18492,-0.73967 z"
       id="path2605" /><path
       style="fill:#666666;stroke-width:0.264583"
       d="m 146.7321,147.10194 v 0.92459 l 34.57959,0.36983 -0.18492,-1.01704 z"
       id="path2607" /><path
       style="fill:#ececec;stroke-width:0.264583"
       d="m 138.04098,143.58851 0.0925,2.95868 h 1.66426 v -1.5718 z"
       id="path2609" /><path
       style="fill:#ececec;stroke-width:0.264583"
       d="m 135.45213,146.54719 -0.0925,-2.31147 H 133.418 l 0.0925,2.49638 z"
       id="path2611" /><path
       style="fill:#ececec;stroke-width:0.264583"
       d="m 130.92165,146.36227 -0.0925,-3.05114 -1.75672,0.0925 0.18492,3.1436 z"
       id="path2613" /><path
       style="fill:#ececec;stroke-width:0.264583"
       d="m 126.02133,146.54719 -1.47934,0.0925 0.0925,-3.23606 1.5718,0.27737 z"
       id="path2615" /><path
       style="fill:#ececec;stroke-width:0.264583"
       d="m 121.86069,146.63965 h -1.94164 v -3.1436 l 1.84918,0.18491 z"
       id="path2617" /><path
       style="fill:#ececec;stroke-width:0.264583"
       d="m 117.51513,146.45473 v -3.23606 l -2.0341,0.0925 -0.0925,3.05114 z"
       id="path2619" /><path
       style="fill:#ececec;stroke-width:0.264583"
       d="m 113.0771,146.63965 -0.0925,-2.49639 h -1.75671 v 2.58884 z"
       id="path2621" /><path
       style="fill:#ececec;stroke-width:0.264583"
       d="m 108.54662,146.45473 v -3.05114 l -2.03409,0.0925 0.18492,2.77376 z"
       id="path2623" /><path
       style="fill:#ececec;stroke-width:0.264583"
       d="m 146.45473,146.17735 0.0925,-2.58884 h 1.29442 v 2.77376 z"
       id="path2625" /><path
       style="fill:#ececec;stroke-width:0.264583"
       d="m 150.89275,146.54719 -0.0925,-2.95868 1.66426,0.0924 -0.0925,2.77377 z"
       id="path2627" /><path
       style="fill:#ececec;stroke-width:0.264583"
       d="m 155.14585,146.26981 v -3.42098 l 1.84918,-0.0925 -0.18492,3.42098 z"
       id="path2629" /><path
       style="fill:#ececec;stroke-width:0.264583"
       d="m 159.49142,146.26981 0.0924,-3.42098 1.94164,0.18492 -0.18492,3.42098 -1.38688,-0.0925 z"
       id="path2631" /><path
       style="fill:#ececec;stroke-width:0.264583"
       d="m 164.0219,146.17735 v -3.23606 l 2.03409,0.0925 -0.36983,3.23606 z"
       id="path2633" /><path
       style="fill:#ececec;stroke-width:0.264583"
       d="m 168.55238,145.99243 -0.18492,-3.23606 2.03409,-0.0925 v 3.51343 z"
       id="path2635" /><path
       style="fill:#ececec;stroke-width:0.264583"
       d="m 173.17532,146.17735 v -3.32852 h 1.5718 v 3.51344 z"
       id="path2637" /><path
       style="fill:#ececec;stroke-width:0.264583"
       d="m 177.7058,146.26981 0.18492,-3.05114 1.29442,0.0925 -0.0925,3.1436 z"
       id="path2639" /><path
       style="fill:#ececec;stroke-width:0.264583"
       d="m 99.947954,146.08489 -1.756717,-0.0925 0.184917,-3.79081 1.5718,0.0925 z"
       id="path2641" /><path
       style="fill:#ececec;stroke-width:0.264583"
       d="m 95.509933,146.08489 h -1.941634 l 0.277376,-3.60589 0.924587,-0.64721 0.739671,0.92458 z"
       id="path2643" /><path
       style="fill:#ececec;stroke-width:0.264583"
       d="m 91.071911,146.17735 h -1.941635 l 0.09246,-4.16064 1.756717,0.0925 z"
       id="path2645" /><path
       style="fill:#ececec;stroke-width:0.264583"
       d="m 86.726346,146.08489 h -1.941634 l 0.184917,-2.95868 1.849176,0.0925 z"
       id="path2647" /><path
       style="fill:#ececec;stroke-width:0.264583"
       d="m 82.565702,145.80752 -2.21901,0.0924 0.184917,-4.34556 h 2.034093 z"
       id="path2649" /><path
       style="fill:#ececec;stroke-width:0.264583"
       d="M 77.757845,146.08489 H 75.81621 l 0.277376,-6.84195 1.849176,0.0925 z"
       id="path2651" /><path
       style="fill:#ececec;stroke-width:0.264583"
       d="m 73.319822,146.17735 -1.664259,-0.0925 0.184918,-2.58884 h 1.571799 z"
       id="path2653" /><path
       style="fill:#ececec;stroke-width:0.264583"
       d="m 33.747458,126.39117 h 3.790813 v 15.44062 l -5.639988,0.0925 0.184917,-0.64722 4.715399,-0.18491 0.09246,-13.6839 -3.420975,-0.27738 z"
       id="path2657" /><path
       style="fill:#ececec;stroke-width:0.264583"
       d="m 191.29724,141.18458 4.53048,0.0924 0.0925,-2.03409 -5.63999,0.27738 z"
       id="path2659" /><path
       style="fill:#ececec;stroke-width:0.264583"
       d="m 191.01986,136.74656 3.6059,0.0925 -0.18492,-2.40393 -4.99278,0.36984 z"
       id="path2661" /><path
       style="fill:#ececec;stroke-width:0.264583"
       d="m 190.55757,131.9387 3.88327,-0.0925 -0.0925,-1.66426 -5.91736,-0.0925 1.75672,2.03409 z"
       id="path2663" /><path
       style="fill:#ececec;stroke-width:0.264583"
       d="m 191.01986,127.03838 h 3.88328 l -0.0925,-1.94163 -5.91737,0.27737 z"
       id="path2665" /><path
       style="fill:#ececec;stroke-width:0.264583"
       d="m 190.92741,122.5079 h 3.42097 l 0.73967,-0.92459 v -1.01704 l -6.10228,0.18491 z"
       id="path2667" /><path
       style="fill:#ececec;stroke-width:0.264583"
       d="m 191.11232,118.16234 3.6059,0.0924 v -2.21901 l -6.37966,0.18492 z"
       id="path2669" /><path
       style="fill:#ececec;stroke-width:0.264583"
       d="m 191.3897,113.26202 3.69835,-0.0925 v -1.94163 l -4.53048,0.18491 z"
       id="path2671" /><path
       style="fill:#ececec;stroke-width:0.264583"
       d="m 191.3897,108.08433 h 2.77376 l -0.0925,-1.94164 -3.60589,0.0925 z"
       id="path2673" /><path
       style="fill:#ececec;stroke-width:0.264583"
       d="m 191.29724,103.36893 h 3.42098 l 0.0925,-2.03409 -4.99278,-0.0925 z"
       id="path2675" /><path
       style="fill:#ececec;stroke-width:0.264583"
       d="m 191.66708,98.283695 h 2.40392 l 0.73968,-1.109503 v -0.924589 l -6.37966,0.09246 z"
       id="path2677" /><path
       style="fill:#ececec;stroke-width:0.264583"
       d="m 191.85199,93.106003 2.95869,-0.09246 v -1.664259 l -4.53049,0.09246 z"
       id="path2679" /><path
       style="fill:#ececec;stroke-width:0.264583"
       d="m 191.20478,88.667983 3.42098,0.09246 -0.0925,-1.756717 -6.74949,-0.09246 z"
       id="path2681" /><path
       style="fill:#ececec;stroke-width:0.264583"
       d="m 191.57462,84.322419 h 2.77376 l 0.0925,-2.034093 h -4.34556 z"
       id="path2683" /><path
       style="fill:#ececec;stroke-width:0.264583"
       id="path2741"
       sodipodi:type="arc"
       sodipodi:cx="57.193928"
       sodipodi:cy="72.942223"
       sodipodi:rx="9.5234547"
       sodipodi:ry="4.0966821"
       sodipodi:start="3.100019"
       sodipodi:end="3.099701"
       sodipodi:arc-type="slice"
       d="m 47.678702,73.112488 a 9.5234547,4.0966821 0 0 1 9.118659,-4.263394 9.5234547,4.0966821 0 0 1 9.91173,3.922213 9.5234547,4.0966821 0 0 1 -9.117083,4.264017 9.5234547,4.0966821 0 0 1 -9.91318,-3.921535 l 9.5151,-0.171566 z" /><path
       style="fill:#b3b3b3;stroke-width:0.264583"
       d="m 36.391302,67.781463 5.852403,0.106407 0.319223,1.17048 -0.744853,1.276887 -5.001143,-0.106407 -0.74485,-1.17048 z"
       id="path326" /><path
       style="fill:#b3b3b3;stroke-width:0.264583"
       d="m 37.348969,71.186497 -1.170479,0.74485 0.851257,1.276889 5.107551,0.212813 -0.106408,-2.234552 z"
       id="path328" /><path
       style="fill:#b3b3b3;stroke-width:0.264583"
       d="m 37.668192,76.719678 4.149883,0.106407 v -1.596112 l -4.149883,-0.106405 z"
       id="path330" /><path
       style="fill:#b3b3b3;stroke-width:0.264583"
       d="m 36.604117,78.422195 -0.106408,2.340959 5.852404,-0.106408 -0.106408,-2.021736 z"
       id="path332" /><path
       style="fill:#b3b3b3;stroke-width:0.264583"
       d="m 36.497709,82.359263 5.639589,0.106408 v 2.553777 l -5.213959,0.106407 z"
       id="path334" /><path
       style="fill:#b3b3b3;stroke-width:0.264583"
       d="m 36.497709,82.465671 0.106408,2.660184 2.660184,-0.106407 z"
       id="path336" /><path
       style="fill:#b3b3b3;stroke-width:0.264583"
       d="m 37.561784,86.402742 v 1.702517 l 4.469106,-0.106407 0.106408,-1.702517 z"
       id="path338" /><path
       style="fill:#b3b3b3;stroke-width:0.264583"
       d="m 36.284894,89.488554 5.639589,-0.212812 -0.212815,2.340959 -5.320366,-0.106408 z"
       id="path340" /><path
       style="fill:#b3b3b3;stroke-width:0.264583"
       d="m 30.751716,102.25743 h 3.405034 l -0.106407,-1.4897 -3.617849,0.21282 z"
       id="path342" /><path
       style="fill:#b3b3b3;stroke-width:0.264583"
       d="m 30.858124,98.745991 3.192219,-0.106407 v 1.489706 h -3.724257 z"
       id="path344" /><path
       style="fill:#b3b3b3;stroke-width:0.264583"
       d="m 21.707093,97.256289 0.106407,6.384441 3.085813,0.1064 -0.319222,-6.278026 z"
       id="path346" /><path
       style="fill:#b3b3b3;stroke-width:0.264583"
       d="M 24.792905,67.03661 24.899313,89.382146 2.8729977,89.488554 3.0858124,67.143018 Z"
       id="path350" /><path
       style="fill:#b3b3b3;stroke-width:0.264583"
       d="m 66.504573,73.527456 2.447369,0.744852 -0.106407,-2.447369 -2.340962,0.638445 z"
       id="path352" /><path
       style="fill:#b3b3b3;stroke-width:0.264583"
       d="m 48.096109,72.463384 -2.234555,-0.851257 0.106408,2.340959 2.128147,-0.74485 z"
       id="path354" /><ellipse
       style="fill:#b3b3b3;stroke-width:0.264583"
       id="path408"
       cx="46.659607"
       cy="58.470825"
       rx="3.0326087"
       ry="3.2454233" /><ellipse
       style="fill:#e6e6e6;stroke-width:0.264583"
       id="path574"
       cx="45.116703"
       cy="102.31064"
       rx="1.8089244"
       ry="1.7557207" /><ellipse
       style="fill:#e6e6e6;stroke-width:0.319514"
       id="path576"
       cx="49.319794"
       cy="102.31064"
       rx="1.8621281"
       ry="1.862128" /><ellipse
       style="fill:#e6e6e6;stroke-width:0.290794"
       id="path578"
       cx="53.735699"
       cy="102.25743"
       rx="1.8089243"
       ry="1.8089244" /><ellipse
       style="fill:#e6e6e6;stroke-width:0.334495"
       id="path580"
       cx="58.098396"
       cy="102.09782"
       rx="1.8089244"
       ry="1.7557209"
       inkscape:transform-center-x="0.10640732"
       inkscape:transform-center-y="-0.63844392" /><ellipse
       style="fill:#999999;stroke-width:0.264583"
       id="path634"
       cx="188.18961"
       cy="150.05759"
       rx="3.4372532"
       ry="3.7594957" /><ellipse
       style="fill:#999999;stroke-width:0.264583"
       id="path636"
       cx="177.23337"
       cy="58.540718"
       rx="3.222425"
       ry="3.329839" /><circle
       id="path1593"
       style="fill:#000080;stroke:#000000;stroke-width:0.264583"
       cx="90.442726"
       cy="116.65179"
       r="0.028614923" /><path
       style="fill:#808080;stroke-width:0.264583"
       d="m 39.787282,130.52329 v 13.13112 l 24.292562,0.39393 -0.13131,-11.42407 -2.757535,-2.10098 z"
       id="path1657" /><path
       style="fill:#808080;stroke-width:0.264583"
       d="m 31.383366,128.94756 5.383758,0.13131 v 7.22211 l -3.020155,0.26262 -1.444424,2.23229 -2.23229,-1.70704 z"
       id="path1661" /><path
       style="fill:#808080;stroke-width:0.264583"
       d="m 40.049902,115.15988 v 6.43425 l 3.414091,0.13131 -0.13131,-6.04031 z"
       id="path1663" /><path
       style="fill:#808080;stroke-width:0.264583"
       d="m 25.474365,120.93758 v 1.96966 l 5.383756,-0.26262 -2.49491,-3.15147 z"
       id="path1665" /><path
       style="fill:#808080;stroke-width:0.264583"
       d="m 25.211742,111.61448 v -2.10097 l 5.515069,0.13131 -1.838357,2.62622 z"
       id="path1667" /><path
       style="fill:#808080;stroke-width:0.264583"
       d="m 30.858121,66.968689 3.151468,4.333269 -0.13131,15.75734 -3.282778,2.626222 z"
       id="path1669" /><path
       style="fill:#808080;stroke-width:0.264583"
       d="m 46.48415,66.968689 19.565361,0.131313 V 64.473777 L 46.48415,64.7364 Z"
       id="path1671" /><path
       style="fill:#000080;stroke-width:0.264583"
       d="m 126.58396,92.968298 v -8.797845 l 57.12035,-0.262623 v 1.444421 l -41.2317,-0.13131 -5.38376,6.171623 h -8.40392 z"
       id="path1734" /><path
       style="fill:#000080;stroke-width:0.264583"
       d="m 183.573,70.38278 h -19.9593 l 1.57574,-1.050488 h 18.25225 z"
       id="path1765" /><path
       style="fill:#999999;stroke-width:0.264583"
       d="m 169.66189,68.789343 1.84917,-1.386883 -0.27738,4.068186 h -1.57179 z"
       id="path2467" /><path
       style="fill:#008080;stroke-width:0.264583"
       d="m 90.867321,90.079453 -0.131312,-3.282778 5.252447,-5.383757 0.13131,4.727202 -0.13131,5.64638 -4.464579,-1.050491 z"
       id="path1824" /><path
       style="fill:#008080;stroke-width:0.264583"
       d="m 97.826813,83.382584 -0.262623,-3.020155 3.5454,-3.808023 h 4.20196 l 1.1818,0.919178 1.70705,-1.050491 -0.26263,-1.050488 8.2726,0.13131 -2.49491,2.888845 v 3.28278 l -1.57573,-0.131312 -0.65656,1.050491 0.78787,1.181798 -0.91918,-0.393933 z"
       id="path1826" /><path
       style="fill:#008080;stroke-width:0.264583"
       d="m 116.60431,80.887672 2.23229,-3.020155 h 3.67671 l -2.23229,2.626222 0.26262,9.717027 -3.93933,-0.393936 z"
       id="path1828" /><path
       style="fill:#008080;stroke-width:0.264583"
       d="m 107.28122,64.7364 h 9.19178 v 6.302936 h -9.06047 z"
       id="path1830" /><path
       style="fill:#008080;stroke-width:0.264583"
       d="m 181.34071,110.56399 -15.2321,-0.26262 -1.57573,-1.44442 -8.53523,0.13131 v 3.5454 l -2.88884,0.39393 -0.13131,2.23229 h -2.3636 v -0.78786 l -4.59589,0.13131 v 1.70704 l -17.46439,-0.13131 -1.1818,1.1818 -10.24227,-0.13131 -0.13131,1.1818 h -2.88884 v 1.57574 l 58.30215,0.13131 z"
       id="path1832" /><path
       style="fill:#ffffff;stroke-width:0.264583"
       d="m 176.04551,62.58158 0.18571,73.9094 h 1.11421 V 63.138687 Z"
       id="path2403" /><path
       style="fill:#999999;stroke-width:0.264583"
       d="m 147.55472,97.899597 v -2.257052 l -1.97492,-0.28213 v 2.398114 l -0.84639,1.410658 v 2.257053 h 0.28213 v 5.07836 l -0.84639,0.28213 0.14106,2.96239 0.98746,0.84639 0.28213,1.41066 1.69279,-0.14107 0.14107,-1.55172 1.55172,0.14106 0.14107,1.55173 1.83385,-0.14107 0.14107,-1.41066 h 2.39811 l 0.14107,1.55173 h 2.11598 v -1.69279 l 0.70533,-0.4232 V 98.463858 l -1.26959,0.141065 v -2.962378 l -1.83385,0.141065 v 2.115987 z"
       id="path2431" /><path
       style="fill:#000080;stroke-width:0.264583"
       d="m 183.44169,97.038945 -21.92897,-0.13131 1.44443,-1.181802 h 20.22191 z"
       id="path1836" /><path
       style="fill:#000080;stroke-width:0.264583"
       d="m 183.31038,92.049123 h -42.93875 l 0.91918,-1.313114 41.88825,0.131312 z"
       id="path1838" /><path
       style="fill:#000080;stroke-width:0.264583"
       d="m 183.31038,87.190608 -40.83777,-0.13131 1.05049,-1.181801 39.78728,0.13131 z"
       id="path1840" /><path
       style="fill:#000080;stroke-width:0.264583"
       d="m 183.31038,90.079453 -42.2822,-0.262623 1.31311,-1.707044 h 40.83777 v 0.656556 h -40.0499 l -0.39393,0.525246 40.44383,0.13131 z"
       id="path1842" /><path
       style="fill:#000080;stroke-width:0.264583"
       d="m 102.55401,123.16987 0.13131,3.93933 h 3.93934 z"
       id="path1844" /><path
       style="fill:#000080;stroke-width:0.264583"
       d="m 101.63484,126.19002 -4.20196,4.59589 -14.312918,-0.13131 0.131312,-1.44442 -0.787868,-0.39393 0.131313,-1.05049 16.282582,-0.26263 2.100979,-2.62622 z"
       id="path1846" /><path
       style="fill:#000080;stroke-width:0.264583"
       d="m 105.83679,66.574756 h -2.3636 l -4.070643,4.201957 6.959493,0.131313 z"
       id="path1848" /><path
       style="fill:#000080;stroke-width:0.264583"
       d="m 49.905033,145.88443 v 6.17163 l 12.343246,0.1064 -0.31922,-5.8524 z"
       id="path1947" /><path
       style="fill:#000080;stroke-width:0.264583"
       d="m 128.32723,106.30091 -2.34097,2.34096 2.23456,-0.21281 z"
       id="path1949" /><path
       style="fill:#000080;stroke-width:0.264583"
       d="m 183.65903,107.79061 -17.98284,-0.1064 1.06408,1.06407 16.70594,0.21281 z"
       id="path1951" /><path
       style="fill:#000080;stroke-width:0.264583"
       d="m 183.33981,102.78947 h -21.38787 l -1.91533,2.44737 -3.61785,0.1064 v 1.06408 h 25.11212 1.59611 v -0.63845 l -22.13272,0.21282 1.80893,-2.34096 h 20.21739 z"
       id="path1953" /><path
       style="fill:#008080;stroke-width:0.264583"
       d="m 183.12699,103.74713 -20.32379,-0.1064 -1.91534,2.23455 22.45195,-0.10641 z"
       id="path1955" /><path
       style="fill:#4d4d4d;stroke-width:0.264583"
       d="m 60.65217,105.13043 0.106407,-5.639589 -18.940502,0.212815 0.106408,5.320364 h 0.957667 l -0.106407,-4.68192 17.450799,-0.21281 -0.106407,4.89473 z"
       id="path2013" /><path
       style="fill:#4d4d4d;stroke-width:0.264583"
       d="m 42.03089,104.38558 18.514872,-0.10641 -0.106405,0.85126 -18.195652,-0.21282 z"
       id="path2015" /><path
       style="fill:#4d4d4d;stroke-width:0.264583"
       d="M 60.545762,105.13043 H 42.243705 v -0.63845 z"
       id="path2017" /><path
       style="fill:#000080;stroke-width:0.264583"
       d="m 76.50686,93.744848 0.319223,8.512582 -3.405034,3.93707 h -1.17048 l 0.106407,-2.66018 h -0.638444 v 2.12815 l -4.362699,0.1064 0.425627,1.06408 5.426774,0.1064 h 0.638444 l 3.724257,-4.14988 -0.319223,-8.938217 z"
       id="path2019" /><path
       style="fill:#000080;stroke-width:0.264583"
       d="m 78.10297,93.63844 -0.106408,10.2151 -4.043476,4.25629 h -8.086958 v 1.06408 h 0.638445 v -0.63845 l 8.618993,0.10641 4.256293,-4.57551 V 93.851253 Z"
       id="path2027" /><path
       style="fill:#000080;stroke-width:0.264583"
       d="m 82.465671,69.05835 v 35.64645 l 6.810068,7.76773 h 1.596109 v -0.74485 h -1.276887 l -6.278033,-7.02288 z"
       id="path2029" /><path
       style="fill:#000080;stroke-width:0.264583"
       d="m 83.316928,104.81121 -0.212812,-35.646453 -0.638445,0.106405 0.106407,34.688788 z"
       id="path2031" /><path
       style="fill:#000080;stroke-width:0.264583"
       d="m 87.147592,94.915327 -0.106407,4.043479 3.937071,4.256294 -0.106408,-1.59611 -2.872996,-2.979406 0.106407,-0.42563 1.59611,0.532037 0.106407,-0.744852 -1.915332,-0.319223 0.212815,-1.064072 1.489702,0.319223 1.17048,1.808924 v 0.106408 -2.660185 l -2.128147,-0.212815 z"
       id="path2033" /><path
       style="fill:#000080;stroke-width:0.264583"
       d="m 90.871848,90.126999 -0.957664,-0.106408 v -3.617849 l 6.597253,-6.490848 0.212815,6.490848 -0.638445,-0.106407 -0.212815,-4.894736 -5.001144,5.426771 z"
       id="path2035" /><path
       style="fill:#000080;stroke-width:0.264583"
       d="m 95.766585,115.66475 -5.107551,-0.21281 -1.276888,-1.4897 4.681922,-0.10641 1.383297,0.95766 z"
       id="path2037" /><path
       style="fill:#000080;stroke-width:0.264583"
       d="m 81.401599,68.739127 -0.106408,36.391303 0.638443,-0.31922 0.212815,-35.646453 z"
       id="path2039" /><path
       style="fill:#000080;stroke-width:0.264583"
       d="m 79.911894,93.851253 v 12.024027 l 9.15103,10.32151 -4.362699,4.25629 -4.575516,0.10641 0.212815,-0.85126 4.043479,-0.1064 -0.212815,-0.85126 -5.001144,0.42563 -0.744852,1.80892 7.022883,-0.10641 4.788331,-4.89473 -9.257437,-10.64074 -0.319223,-11.38558 z"
       id="path2041" /><path
       style="fill:#000080;stroke-width:0.264583"
       d="m 45.861554,130.45537 v -2.02174 l -1.064075,-0.95766 -7.342102,0.1064 -0.106408,0.74486 h 7.44851 v 2.12814 z"
       id="path2043" /><path
       style="fill:#000080;stroke-width:0.264583"
       d="m 100.87414,124.07093 -2.553779,2.873 H 80.763154 l -0.106408,-0.63844 17.557208,-0.21282 2.447366,-2.66018 z"
       id="path2045" /><path
       style="fill:#000080;stroke-width:0.264583"
       d="m 183.02059,120.02746 -2.34097,0.1064 -66.50457,-0.21281 v -2.34096 l -1.27689,0.1064 0.10641,2.873 70.12242,0.31922 z"
       id="path2047" /><path
       style="fill:#000080;stroke-width:0.264583"
       d="m 182.91418,122.47482 -73.20824,0.21282 -1.91533,-2.44737 -0.1064,-2.66018 -0.53204,0.1064 0.10641,2.873 2.55377,2.873 73.31464,-0.21282 z"
       id="path2049" /><path
       style="fill:#000080;stroke-width:0.264583"
       d="m 183.2334,126.5183 -74.59153,-0.42563 -3.51144,-3.61785 -0.21282,-4.4691 0.10641,-0.42563 -0.74485,0.1064 0.21281,5.10755 3.72426,3.83067 75.01716,0.53203 z"
       id="path2051" /><path
       style="fill:#000080;stroke-width:0.264583"
       d="m 156.31235,100.66132 5.63959,-5.745993 h 21.38787 v -0.744852 h -22.02632 l -4.89473,5.320366 z"
       id="path2053" /><path
       style="fill:#000080;stroke-width:0.264583"
       d="m 135.35011,128.85926 -33.4119,0.10641 0.10641,-0.74485 h 33.30549 z"
       id="path2318" /><path
       style="fill:#000080;stroke-width:0.264583"
       d="m 165.46338,128.32723 6.91647,-0.10641 8.83181,8.51258 1.70252,-1.06407 -0.10641,1.3833 -1.3833,0.74484 -9.68306,-8.8318 -5.95881,-0.10641 z"
       id="path2320" /><path
       style="fill:#000080;stroke-width:0.264583"
       d="m 135.35011,129.60411 -33.09268,0.10641 -4.256291,4.3627 H 85.445075 l -2.766589,2.66018 -10.215102,-0.1064 -0.319223,-0.31923 v -3.83066 l -1.383294,0.10641 v 4.46911 l 1.064072,1.06407 11.066362,0.21281 3.405034,-3.51144 12.236841,0.21282 4.362694,-4.57552 32.34783,-0.31922 z"
       id="path2322" /><path
       style="fill:#000080;stroke-width:0.264583"
       d="m 64.908464,118.53775 0.106407,3.51144 9.363845,0.21282 1.170479,-0.95767 v -0.53204 l -0.638444,0.10641 v 0.42563 l -0.851258,0.63844 -2.872999,-0.1064 0.106408,-1.3833 2.872999,-0.21281 0.212815,-0.53204 4.149884,-0.31922 -0.106408,-0.53204 z"
       id="path2324" /><path
       style="fill:#000080;stroke-width:0.264583"
       d="m 61.0778,115.02631 3.085811,-3.19222 h 0.957668 l -2.979405,3.29863 z"
       id="path2326" /><path
       style="fill:#000080;stroke-width:0.264583"
       d="m 33.943935,112.25972 2.021737,0.10641 1.808924,2.23455 h 2.766592 l 0.106408,0.74485 h -2.873 l -2.128144,-2.23455 -1.383297,-0.10641 z"
       id="path2330" /><path
       style="fill:#008080;stroke-width:0.264583"
       d="M 79.167044,75.76201 Z"
       id="path2332" /><path
       style="fill:#008080;stroke-width:0.264583"
       d="m 73.527456,66.291758 0.106408,4.362701 2.128146,2.234552 2.234552,0.85126 -1.276887,1.17048 V 78.5286 l -9.15103,-0.106408 0.106408,-3.830664 2.340962,0.212815 -0.106408,-3.298626 -2.128147,-0.212815 0.106408,-2.766589 -1.276887,-1.064073 0.106407,-0.957667 z"
       id="path2334" /><path
       style="fill:#008080;stroke-width:0.264583"
       d="m 93.106403,66.504573 0.319222,6.703661 5.213959,-5.320366 v -1.383295 z"
       id="path2336" /><path
       style="fill:#008080;stroke-width:0.264583"
       d="m 84.06178,66.398166 0.319223,6.597253 5.213958,-0.106408 0.106408,-6.597253 z"
       id="path2338" /></g><g
     inkscape:groupmode="layer"
     id="layer5"
     inkscape:label="Capa 3"><path
       style="fill:#4d4d4d;stroke-width:0.264583"
       d="m 100.57984,153.90268 0.14107,-4.0909 -36.677081,-0.28214 v 4.09091 z"
       id="path1990" /><path
       style="fill:#4d4d4d;stroke-width:0.264583"
       d="m 105.09395,149.81178 0.14106,4.37303 36.95922,0.4232 v -4.09091 z"
       id="path1992" /><path
       style="fill:#4d4d4d;stroke-width:0.264583"
       d="m 182.82115,154.74907 v -4.5141 l -37.24135,-0.28213 0.14107,4.23197 z"
       id="path1994" /><path
       style="fill:#4d4d4d;stroke-width:0.264583"
       d="m 47.821273,56.012838 v 4.796234 l 46.833813,0.564264 v -4.514104 z"
       id="path1996" /><path
       style="fill:#4d4d4d;stroke-width:0.264583"
       d="m 96.206809,54.16923 0.141065,4.9373 36.818146,0.141065 v -4.9373 z"
       id="path1998" /><path
       style="fill:#4d4d4d;stroke-width:0.264583"
       d="m 136.41053,57.413741 v 4.514101 l 37.66454,0.282131 -0.14106,-5.360495 h -38.08774 z"
       id="path2000" /><path
       style="fill:#4d4d4d;stroke-width:0.264583"
       d="m 183.52648,56.003083 8.74607,-0.141065 -0.56426,89.576722 h -8.88714 z"
       id="path2002" /><path
       style="fill:#1a1a1a;stroke-width:0.264583"
       d="m 15.940424,124.13782 -6.0658249,-0.14107 -2.6802484,1.41066 v 16.92788 h 5.7836933 l 1.551723,-0.84639 18.056409,0.56426 2.115986,-1.55172 v -4.37304 l -1.692788,-0.14106 -0.846394,2.11598 v -6.91222 l 0.423196,-0.98746 0.564263,0.70533 1.410658,-1.41066 0.141065,-1.69279 -0.564263,-1.97492 -0.705327,-0.56426 -18.338542,0.28213 z"
       id="path2004" /><path
       style="fill:#1a1a1a;stroke-width:0.264583"
       d="m 40.626921,116.66133 v 4.65517 h 1.833854 l 0.141068,-4.37303 z"
       id="path2006" /><path
       style="fill:#1a1a1a;stroke-width:0.264583"
       d="m 55.297755,115.25068 0.141065,8.88714 h 5.924759 l -0.423196,-9.16927 z"
       id="path2008" /><path
       style="fill:#1a1a1a;stroke-width:0.264583"
       d="m 24.686498,110.59551 5.21943,0.14106 v 11.00313 h -5.501562 z"
       id="path2010" /><path
       style="fill:#333333;stroke-width:0.264583"
       d="m 44.479549,85.266554 -0.846394,1.128527 v 5.783694 h 17.915342 l -0.282131,-6.630088 z"
       id="path2012" /><path
       style="fill:#1a1a1a;stroke-width:0.264583"
       d="m 31.17552,102.69583 -1.833853,0.14107 v -4.796238 l 2.115984,-0.141065 z"
       id="path2014" /><path
       style="fill:#1a1a1a;stroke-width:0.264583"
       d="m 136.5516,96.065741 -8.46394,0.282133 0.14106,3.808776 1.12853,0.70533 -1.26959,0.56426 0.14106,3.52664 1.12853,0.56426 -1.12853,0.70533 0.14107,3.38558 0.84639,0.70533 6.48902,0.28213 1.41066,-0.70533 0.14107,-3.10345 -1.26959,-0.70532 1.41065,-0.8464 0.14107,-3.66771 -1.55172,-0.56426 1.12852,-0.84639 0.14107,-3.949841 z"
       id="path2016" /><path
       style="fill:#333333;stroke-width:0.264583"
       d="M 72.648836,112.2883 Z"
       id="path2018" /><path
       style="fill:#333333;stroke-width:0.264583"
       d="m 95.115761,88.269649 -1.410655,1.692789 -0.282134,23.416902 1.551723,1.41066 21.583055,-0.14107 1.55172,-1.12852 -0.14106,-23.699038 -1.55173,-1.269592 z"
       id="path2020" /><path
       style="fill:#333333;stroke-width:0.264583"
       d="m 52.194309,148.26005 6.347957,-0.14107 0.141065,3.80878 h -6.206889 z"
       id="path2022" /><path
       style="fill:#333333;stroke-width:0.264583"
       d="m 72.50777,131.75537 h -2.539182 v -1.97493 h 2.539182 z"
       id="path2024" /><path
       style="fill:#333333;stroke-width:0.264583"
       d="m 72.648836,128.65192 -2.962381,0.14106 0.141068,-1.12852 3.244511,0.14106 z"
       id="path2026" /><path
       style="fill:#333333;stroke-width:0.264583"
       d="m 32.868309,85.767946 -2.115987,0.705329 0.141065,-14.670833 1.974922,2.115986 z"
       id="path2028" /><path
       style="fill:#333333;stroke-width:0.264583"
       d="m 145.5798,109.89018 h 9.31034 l -0.14107,-10.297795 -9.31033,-0.423198 z"
       id="path2030" /><path
       style="fill:#d35f5f;stroke-width:0.264692"
       id="path2188"
       sodipodi:type="arc"
       sodipodi:cx="158.70293"
       sodipodi:cy="97.958015"
       sodipodi:rx="2.3260593"
       sodipodi:ry="2.40097"
       sodipodi:start="3.1793106"
       sodipodi:end="3.15873"
       sodipodi:arc-type="slice"
       d="m 156.37852,97.867477 a 2.3260593,2.40097 0 0 1 2.40016,-2.309158 2.3260593,2.40097 0 0 1 2.24943,2.465541 2.3260593,2.40097 0 0 1 -2.37701,2.33453 2.3260593,2.40097 0 0 1 -2.27389,-2.441519 l 2.32572,0.04114 z"
       transform="matrix(0.99904908,0.04359969,-0.08418428,0.9964502,0,0)" /><path
       style="fill:#e6e6e6;stroke-width:0.264583"
       id="path2372"
       sodipodi:type="arc"
       sodipodi:cx="45.171036"
       sodipodi:cy="137.67975"
       sodipodi:rx="5.5150685"
       sodipodi:ry="6.1059685"
       sodipodi:start="3.100019"
       sodipodi:end="3.099701"
       sodipodi:arc-type="slice"
       d="m 39.660733,137.93352 a 5.5150685,6.1059685 0 0 1 5.280649,-6.35444 5.5150685,6.1059685 0 0 1 5.73992,5.84592 5.5150685,6.1059685 0 0 1 -5.279737,6.35538 5.5150685,6.1059685 0 0 1 -5.740759,-5.84492 l 5.51023,-0.25571 z" /><path
       style="fill:#e6e6e6;stroke-width:0.264583"
       id="path2374"
       sodipodi:type="arc"
       sodipodi:cx="56.989037"
       sodipodi:cy="137.48277"
       sodipodi:rx="5.7776904"
       sodipodi:ry="6.1716251"
       sodipodi:start="3.100019"
       sodipodi:end="3.099701"
       sodipodi:arc-type="slice"
       d="m 51.216338,137.73928 a 5.7776904,6.1716251 0 0 1 5.532109,-6.42278 5.7776904,6.1716251 0 0 1 6.013249,5.90879 5.7776904,6.1716251 0 0 1 -5.531152,6.42371 5.7776904,6.1716251 0 0 1 -6.014129,-5.90776 l 5.772622,-0.25847 z" /><path
       style="fill:#ececec;stroke-width:0.264583"
       d="M 211.08342,89.407652 Z"
       id="path2685" /><path
       style="fill:#ececec;stroke-width:0.264583"
       id="path2739"
       sodipodi:type="arc"
       sodipodi:cx="135.08409"
       sodipodi:cy="87.679626"
       sodipodi:rx="2.7133865"
       sodipodi:ry="2.7665904"
       sodipodi:start="3.100019"
       sodipodi:end="3.099701"
       sodipodi:arc-type="slice"
       d="m 132.37305,87.794611 a 2.7133865,2.7665904 0 0 1 2.59805,-2.879175 2.7133865,2.7665904 0 0 1 2.82402,2.648767 2.7133865,2.7665904 0 0 1 -2.59761,2.879596 2.7133865,2.7665904 0 0 1 -2.82442,-2.648309 l 2.711,-0.115864 z" /><path
       style="fill:#000080;stroke-width:0.264583"
       d="m 125.13953,92.180433 -0.26262,11.555377 -4.7272,0.13132 0.26262,-8.535229 2.10098,0.13131 z"
       id="path1743" /><path
       style="fill:#000080;stroke-width:0.264583"
       d="m 137.48278,103.73581 7.48474,-7.484731 0.13131,-1.181801 -1.05049,-0.262623 -2.10098,2.363602 -1.96967,0.262623 -3.15146,3.15147 -0.52525,0.26262 1.44442,0.91918 z"
       id="path1745" /><path
       style="fill:#000080;stroke-width:0.264583"
       d="m 156.5229,104.39237 h 3.41409 l 2.23229,-2.62622 21.00978,0.26262 v -1.31311 l -22.97945,-0.13131 -2.3636,2.3636 -1.31311,0.13131 z"
       id="path1747" /><path
       style="fill:#000080;stroke-width:0.264583"
       d="m 115.94775,115.42251 12.34325,0.13131 0.65656,-1.05049 13.91898,-0.13131 v -1.70705 l 1.83836,-0.13131 0.13131,-2.3636 -0.65656,-0.52524 -0.13131,-1.31311 -1.57573,0.26262 -4.98983,5.25244 h -17.727 l 0.13131,0.52525 -2.10098,-0.26262 z"
       id="path1749" /><path
       style="fill:#000080;stroke-width:0.264583"
       d="M 183.17906,99.533857 H 160.0683 l 1.70705,-1.575734 21.40371,0.131313 z"
       id="path1753" /><path
       style="fill:#000080;stroke-width:0.264583"
       d="m 183.44169,80.231117 h -24.29257 l 1.44443,-1.575734 h 22.84814 z"
       id="path1755" /><path
       style="fill:#000080;stroke-width:0.264583"
       d="m 183.17906,82.594719 -7.22211,-0.262623 v 0.919178 h -17.33307 v -0.525245 l 15.62603,-0.13131 -0.13131,-0.919179 -15.62603,0.262623 1.1818,-1.181801 23.63601,0.393933 v 0.919178 z"
       id="path1757" /><path
       style="fill:#000080;stroke-width:0.264583"
       d="m 183.31038,77.736204 -22.84815,-0.26262 1.31312,-1.575734 21.40371,0.26262 z"
       id="path1759" /><path
       style="fill:#000080;stroke-width:0.264583"
       d="m 183.573,75.241292 -21.66634,0.131313 v -0.525246 h 3.67671 v -0.919178 h 17.85832 z"
       id="path1761" /><path
       style="fill:#000080;stroke-width:0.264583"
       d="m 183.44169,72.61507 h -11.55538 l 0.26262,-1.050489 11.29276,0.13131 z"
       id="path1763" /><path
       style="fill:#999999;stroke-width:0.264583"
       d="m 165.31632,71.470646 1.94164,-0.09246 -0.0925,-2.866223 -0.64721,-0.09246 -0.18492,-0.73967 -1.01705,-0.09246 z"
       id="path2463" /><path
       style="fill:#000080;stroke-width:0.264583"
       d="m 118.04873,66.443446 h 3.28278 v 4.201957 l -1.70704,1.707044 h -3.4141 l 1.70705,-1.444421 z"
       id="path1855" /><path
       style="fill:#000080;stroke-width:0.264583"
       d="m 84.433073,75.109982 h 4.595892 l 0.262623,-1.707044 -4.989825,0.262623 0.13131,-0.787869 h 5.252447 v -6.302936 l 0.656556,-0.13131 v 8.666536 l -6.171623,6.434246 z"
       id="path1857" /><path
       style="fill:#000080;stroke-width:0.264583"
       d="m 90.998632,66.574756 0.131312,8.797849 1.181799,-1.313112 -0.13131,-7.484737 z"
       id="path1859" /><path
       style="fill:#000080;stroke-width:0.264583"
       d="m 100.0591,66.443446 v 1.969667 l -13.262425,14.312916 0.393933,0.393933 15.100782,-16.545206 z"
       id="path1861" /><path
       style="fill:#000080;stroke-width:0.264583"
       d="m 83.776517,101.76615 5.121138,5.38375 -0.393936,1.0505 0.656556,0.39393 0.525245,-0.91918 1.444424,0.13131 -0.131312,3.15147 H 89.68552 l -5.909003,-6.56556 z"
       id="path1863" /><path
       style="fill:#000080;stroke-width:0.264583"
       d="m 80.493739,68.544423 v 10.504892 h -1.838356 v -3.414088 l 1.050491,-1.444423 v -5.383758 z"
       id="path1865" /><path
       style="fill:#000080;stroke-width:0.264583"
       d="m 21.666341,97.301567 0.262622,-1.575734 5.909003,-6.434245 0.919178,0.13131 -5.777692,6.302935 -0.131311,1.707047 z"
       id="path1867" /><path
       style="fill:#000080;stroke-width:0.264583"
       d="m 29.368419,99.171619 -1.915332,0.106407 -2.660182,2.873004 -0.106407,-4.788336 h -0.957666 l 0.425629,-1.064072 6.38444,-6.597253 h 1.064072 l -6.384439,7.12929 0.212815,3.405031 1.702518,-1.808921 h 2.447367 z"
       id="path1869" /><path
       style="fill:#000080;stroke-width:0.264583"
       d="m 24.792905,103.64073 h 0.851259 l 2.447368,-2.55378 1.383294,-0.10641 -0.106407,-0.63844 -1.915332,0.21282 -2.128145,2.34095 -0.532037,-0.1064 z"
       id="path1871" /><path
       style="fill:#000080;stroke-width:0.264583"
       d="M 36.497709,89.701369 H 32.87986 l -1.915332,2.660182 0.42563,6.278033 h 0.957668 l -0.212815,-6.065219 1.702517,-2.128146 h 2.234551 z"
       id="path1873" /><path
       style="fill:#000080;stroke-width:0.264583"
       d="m 32.986268,98.533176 v -5.107551 l 1.808924,-2.340962 1.59611,-0.106407 -0.106408,0.532037 -1.276887,0.106408 -1.489702,2.021739 0.106408,5.213959 z"
       id="path1875" /><path
       style="fill:#000080;stroke-width:0.264583"
       d="m 42.137298,121.83638 v 1.38329 h 6.27803 l 6.490849,7.2357 -1.59611,0.10641 -5.533181,-6.27803 -6.171626,-0.31923 -1.064072,-2.34096 z"
       id="path1879" /><path
       style="fill:#000080;stroke-width:0.264583"
       d="m 59.588098,124.07093 v 4.78833 l 1.596109,1.70252 h -5.745996 l 1.170483,-2.12815 v -4.46911 z"
       id="path1881" /><path
       style="fill:#000080;stroke-width:0.264583"
       d="m 52.77803,130.66818 -5.213959,-5.42677 -6.278033,-0.1064 -1.17048,-1.70252 0.106408,-2.873 -2.44737,-0.10641 -0.744849,-0.85125 -0.212815,-2.44737 -2.660182,-0.21282 v 0.53204 l 2.021737,0.10641 0.212815,2.55377 0.957667,0.95767 2.128144,0.21281 v 2.34096 l 1.489705,2.02174 5.001144,0.10641 4.575513,4.78833 z"
       id="path1883" /><path
       style="fill:#000080;stroke-width:0.264583"
       d="m 63.737984,132.47711 3.830661,-3.93707 2.44737,-0.21281 -0.106408,-0.74486 -2.979404,0.21282 -4.043479,3.93707 z"
       id="path1885" /><path
       style="fill:#000080;stroke-width:0.264583"
       d="m 61.397022,130.66818 5.001144,-5.32036 h 3.724256 v 1.27689 l -3.405034,0.10641 -4.362701,4.57551 z"
       id="path1887" /><path
       style="fill:#008080;stroke-width:0.264583"
       d="m 98.107546,118.11212 -0.106407,2.66018 -0.957665,1.17048 h -5.107551 l 0.106405,1.59612 h 1.915332 v 1.06407 h 3.405034 l 2.340962,-2.66019 0.744854,1.59612 0.74485,1.70251 0.10641,-7.55492 z"
       id="path1889" /><path
       style="fill:#008080;stroke-width:0.264583"
       d="m 96.830659,133.64759 1.489702,-1.91533 -10.747139,0.31922 -1.276887,1.59611 z"
       id="path1891" /><ellipse
       style="fill:#999999;stroke-width:0.27967"
       id="path1945"
       cx="44.318649"
       cy="148.81062"
       rx="3.1390159"
       ry="3.5646451" /></g></svg>
