<?xml version="1.0" encoding="UTF-8" standalone="no"?>
<!-- Created with Inkscape (http://www.inkscape.org/) -->

<svg
   width="201.46547mm"
   height="138.24718mm"
   viewBox="0 0 201.46547 138.24718"
   version="1.1"
   id="svg30935"
   inkscape:export-filename="MotorGris.svg"
   inkscape:export-xdpi="25.21524"
   inkscape:export-ydpi="25.21524"
   inkscape:version="1.3 (1:1.3+202307231459+0e150ed6c4)"
   sodipodi:docname="MotorGris.svg"
   xmlns:inkscape="http://www.inkscape.org/namespaces/inkscape"
   xmlns:sodipodi="http://sodipodi.sourceforge.net/DTD/sodipodi-0.dtd"
   xmlns="http://www.w3.org/2000/svg"
   xmlns:svg="http://www.w3.org/2000/svg">
  <sodipodi:namedview
     id="namedview30937"
     pagecolor="#ffffff"
     bordercolor="#000000"
     borderopacity="0.25"
     inkscape:showpageshadow="2"
     inkscape:pageopacity="0.0"
     inkscape:pagecheckerboard="0"
     inkscape:deskcolor="#d1d1d1"
     inkscape:document-units="mm"
     showgrid="false"
     inkscape:zoom="0.74564396"
     inkscape:cx="273.58902"
     inkscape:cy="316.50494"
     inkscape:window-width="1280"
     inkscape:window-height="656"
     inkscape:window-x="0"
     inkscape:window-y="27"
     inkscape:window-maximized="1"
     inkscape:current-layer="layer1"
     showguides="true">
    <sodipodi:guide
       position="0.49999569,91.329011"
       orientation="1,0"
       id="guide5213"
       inkscape:locked="false" />
    <sodipodi:guide
       position="-90.329007,94.339921"
       orientation="1,0"
       id="guide5215"
       inkscape:locked="false" />
    <sodipodi:guide
       position="200.96546,55.950861"
       orientation="1,0"
       id="guide5219"
       inkscape:locked="false" />
    <sodipodi:guide
       position="114.41261,0.50000447"
       orientation="0,-1"
       id="guide5221"
       inkscape:locked="false" />
    <sodipodi:guide
       position="105.37989,137.74715"
       orientation="0,-1"
       id="guide5223"
       inkscape:locked="false" />
    <sodipodi:guide
       position="26.468765,92.032889"
       orientation="0,1"
       id="guide19"
       inkscape:locked="false" />
    <sodipodi:guide
       position="81.216411,92.032887"
       orientation="1,0"
       id="guide20"
       inkscape:locked="false" />
    <sodipodi:guide
       position="81.216411,33.073758"
       orientation="0,-1"
       id="guide21"
       inkscape:locked="false" />
    <sodipodi:guide
       position="81.216411,109.32909"
       orientation="0,-1"
       id="guide22"
       inkscape:locked="false" />
    <sodipodi:guide
       position="26.890789,92.032887"
       orientation="1,0"
       id="guide23"
       inkscape:locked="false" />
  </sodipodi:namedview>
  <defs
     id="defs30932" />
  <g
     inkscape:groupmode="layer"
     id="layer5"
     inkscape:label="pines">
    <g
       id="path6"
       style="fill:#ff2d04;fill-opacity:1;stroke:#a50000;stroke-width:1.00041;stroke-dasharray:none;stroke-opacity:1"
       inkscape:label="pines"
       transform="matrix(0.66272844,0,0,0.66272844,-15.552795,-30.800633)"
       inkscape:export-filename="../Desktop/MotorGris.svg"
       inkscape:export-xdpi="251.44"
       inkscape:export-ydpi="251.44">
      <path
         style="color:#000000;fill:#ff2d04;fill-opacity:1;stroke:#a50000;stroke-width:1.00041;stroke-dasharray:none;stroke-opacity:1"
         d="M 105,91.046018 V 75.558226"
         id="path27" />
      <path
         id="path28"
         style="color:#000000;fill:#ff2d04;fill-opacity:1;stroke:#a50000;stroke-width:1.00041;stroke-dasharray:none;stroke-opacity:1"
         d="m 104.99979,70.232406 -0.43356,0.748274 -4.18321,7.238318 h 3.11712 v 12.827641 h 2.99982 V 78.218998 h 3.11712 z" />
      <g
         id="g24"
         style="fill:#ff2d04;fill-opacity:1;stroke:#a50000;stroke-width:1.00041;stroke-dasharray:none;stroke-opacity:1">
        <g
           id="path24"
           style="fill:#ff2d04;fill-opacity:1;stroke:#a50000;stroke-width:1.00041;stroke-dasharray:none;stroke-opacity:1" />
      </g>
    </g>
    <g
       id="g33"
       transform="matrix(0.66272844,0,0,0.66272844,-4.2878089,-31.177821)"
       style="fill:#adadff;fill-opacity:1;stroke:#00007f;stroke-width:1.00041;stroke-dasharray:none;stroke-opacity:1"
       inkscape:label="pines">
      <g
         id="g32"
         style="fill:#adadff;fill-opacity:1;stroke:#00007f;stroke-width:1.00041;stroke-dasharray:none;stroke-opacity:1">
        <g
           id="path1"
           style="fill:#adadff;fill-opacity:1;stroke:#00007f;stroke-width:1.00041;stroke-dasharray:none;stroke-opacity:1">
          <path
             style="color:#000000;fill:#adadff;fill-opacity:1;stroke:#00007f;stroke-width:1.00041;stroke-miterlimit:3;stroke-dasharray:none;stroke-opacity:1"
             d="M 47.546019,148.5 H 17.568359"
             id="path22" />
          <path
             id="path23"
             style="color:#000000;fill:#adadff;fill-opacity:1;stroke:#00007f;stroke-width:1.00041;stroke-miterlimit:3;stroke-dasharray:none;stroke-opacity:1"
             d="m 17.568437,144.74982 c -2.069998,0 -3.750159,1.68016 -3.750159,3.75016 0,2.07 1.680161,3.75016 3.750159,3.75016 1.503206,0 2.840606,-0.92616 3.430281,-2.24999 h 26.548251 v -3.00034 h -26.54205 c -0.579147,-1.32375 -1.899928,-2.24999 -3.436482,-2.24999 z" />
          <g
             id="g21"
             style="fill:#adadff;fill-opacity:1;stroke:#00007f;stroke-width:1.00041;stroke-dasharray:none;stroke-opacity:1" />
        </g>
      </g>
    </g>
    <g
       id="g33045"
       transform="matrix(0.66272844,0,0,0.66272844,-15.351241,-29.536997)"
       inkscape:label="pines">
      <path
         style="color:#000000;fill:#a1e788;fill-opacity:1;stroke:#062b06;stroke-width:1.18709;stroke-opacity:1;-inkscape-stroke:none"
         d="m 146.14098,128.97236 v 3 h 33.31143 v -3 z"
         id="path30"
         sodipodi:nodetypes="ccccc" />
      <g
         id="path8"
         style="fill:#ff2d04;fill-opacity:1;stroke:#a50000;stroke-opacity:1"
         transform="translate(-17.045613,3.8619449)">
        <path
           style="color:#000000;fill:#a1e788;fill-opacity:1;stroke:#062b06;stroke-width:1.15654;stroke-opacity:1;-inkscape-stroke:none"
           d="m 163.03373,156.38578 v 2.84346 h 26.32127 3.51912 3.51911 v -2.84346 z"
           id="path32"
           sodipodi:nodetypes="ccccccc" />
      </g>
    </g>
    <g
       id="g6"
       transform="matrix(0.50737876,0,0,0.50737876,0.77882872,45.303972)"
       style="fill:#ff8e45;fill-opacity:1;stroke:#ff6201;stroke-width:1.30618;stroke-dasharray:none;stroke-opacity:1"
       inkscape:label="pines">
      <g
         id="path1-6"
         style="fill:#ff8e45;fill-opacity:1;stroke:#ff6201;stroke-width:1.30618;stroke-dasharray:none;stroke-opacity:1">
        <path
           style="color:#000000;fill:#ff8e45;fill-opacity:1;stroke:#ff6201;stroke-width:1.30618;stroke-linecap:square;stroke-dasharray:none;stroke-opacity:1"
           d="M 105,119.85644 V 156.6582"
           id="path10" />
      </g>
      <g
         id="path2"
         style="fill:#ff8e45;fill-opacity:1;stroke:#ff6201;stroke-width:1.30618;stroke-dasharray:none;stroke-opacity:1" />
      <g
         id="g3"
         style="fill:#000000;fill-opacity:1;stroke:#666666;stroke-opacity:1">
        <path
           id="path11"
           style="color:#000000;fill:#000000;fill-opacity:1;stroke:#666666;stroke-width:1.30618;stroke-linecap:square;stroke-dasharray:none;stroke-opacity:1"
           d="m 103.04092,117.89629 v 1.95949 35.48208 H 83.518249 a 1.4633716,1.9738571 0 0 0 -1.462699,1.97366 1.4633716,1.9738571 0 0 0 1.462699,1.97366 h 41.656861 a 1.4633716,1.9738571 0 0 0 1.46338,-1.97366 1.4633716,1.9738571 0 0 0 -1.46338,-1.97366 h -18.21589 v -35.48208 -1.95949 z" />
        <g
           id="path3"
           style="fill:#000000;fill-opacity:1;stroke:#666666;stroke-width:1.30618;stroke-dasharray:none;stroke-opacity:1"
           transform="translate(6.5413825,0.72507)">
          <path
             style="color:#000000;fill:#000000;fill-opacity:1;stroke:#666666;stroke-width:1.13304;stroke-linecap:round;stroke-dasharray:none;stroke-opacity:1"
             d="m 83.318607,161.10562 a 1.4633716,1.9738571 0 0 0 -1.463159,1.97357 1.4633716,1.9738571 0 0 0 1.463159,1.97554 H 112.0464 a 1.4633716,1.9738571 0 0 0 1.46316,-1.97554 1.4633716,1.9738571 0 0 0 -1.46316,-1.97357 z"
             id="path15" />
        </g>
        <g
           id="path4"
           style="fill:#000000;fill-opacity:1;stroke:#666666;stroke-width:1.30618;stroke-dasharray:none;stroke-opacity:1">
          <path
             style="color:#000000;fill:#000000;fill-opacity:1;stroke:#666666;stroke-width:1.13304;stroke-linecap:round;stroke-dasharray:none;stroke-opacity:1"
             d="m 95.759058,168.32563 a 1.4633716,1.9738571 0 0 0 -1.463158,1.97356 1.4633716,1.9738571 0 0 0 1.463158,1.97357 h 16.437552 a 1.4633716,1.9738571 0 0 0 1.46317,-1.97357 1.4633716,1.9738571 0 0 0 -1.46317,-1.97356 z"
             id="path18" />
        </g>
        <g
           id="path5"
           style="fill:#000000;fill-opacity:1;stroke:#666666;stroke-width:1.30618;stroke-dasharray:none;stroke-opacity:1">
          <path
             style="color:#000000;fill:#000000;fill-opacity:1;stroke:#666666;stroke-width:1.13304;stroke-linecap:round;stroke-dasharray:none;stroke-opacity:1"
             d="m 101.39337,174.81958 a 1.4633716,1.9738571 0 0 0 -1.463161,1.97357 1.4633716,1.9738571 0 0 0 1.463161,1.97357 h 5.41354 a 1.4633716,1.9738571 0 0 0 1.46461,-1.97357 1.4633716,1.9738571 0 0 0 -1.46461,-1.97357 z"
             id="path20" />
        </g>
      </g>
    </g>
  </g>
  <g
     inkscape:label="Relleno"
     inkscape:groupmode="layer"
     id="layer1"
     transform="translate(-9.0345403,-89.827153)">
    <g
       inkscape:groupmode="layer"
       id="layer6"
       inkscape:label="actuador">
      <rect
         style="fill:#a1e788;fill-opacity:1;stroke:#062b06;stroke-width:1.50891;stroke-linejoin:round;stroke-dasharray:none;stroke-dashoffset:0;stroke-opacity:1"
         id="rect23"
         width="81.472466"
         height="114.48452"
         x="64.51387"
         y="91.546844"
         inkscape:label="Actuador"
         transform="matrix(0.66272844,0,0,0.66272844,-6.498346,58.457732)" />
    </g>
    <g
       id="g31850"
       transform="matrix(0.66272844,0,0,0.66272844,-6.4983461,58.457732)"
       inkscape:label="Texto"
       style="stroke:#062b06;stroke-opacity:1">
      <path
         d="m 99.181249,193.66466 v -2.07222 h -1.705317 v -0.85782 h 2.738838 v 3.31245 q -0.604608,0.42891 -1.333243,0.65112 -0.728635,0.21704 -1.555456,0.21704 -1.808669,0 -2.831859,-1.0542 -1.018023,-1.05936 -1.018023,-2.94555 0,-1.89135 1.018023,-2.94554 1.02319,-1.05937 2.831859,-1.05937 0.754474,0 1.431433,0.18604 0.682127,0.18603 1.255736,0.54777 v 1.11104 q -0.578777,-0.49093 -1.229898,-0.73897 -0.651121,-0.24805 -1.369421,-0.24805 -1.41593,0 -2.129062,0.79065 -0.707965,0.79064 -0.707965,2.35643 0,1.56063 0.707965,2.35127 0.713132,0.79065 2.129062,0.79065 0.552936,0 0.987017,-0.093 0.43408,-0.0982 0.780311,-0.29972 z m 2.940381,-6.61456 h 1.40559 l 3.42097,6.45436 v -6.45436 h 1.01286 v 7.71527 h -1.4056 l -3.42097,-6.45437 v 6.45437 h -1.01285 z m 8.96066,0.85782 v 5.99962 h 1.26091 q 1.59679,0 2.33576,-0.72347 0.74414,-0.72347 0.74414,-2.28409 0,-1.55029 -0.74414,-2.26859 -0.73897,-0.72347 -2.33576,-0.72347 z m -1.04386,-0.85782 h 2.14457 q 2.24275,0 3.29178,0.93534 1.04903,0.93017 1.04903,2.91454 0,1.9947 -1.0542,2.93005 -1.0542,0.93534 -3.28661,0.93534 h -2.14457 z"
         id="text2"
         style="font-size:10.5833px;line-height:1.25;stroke:#062b06;stroke-width:0.264583;stroke-opacity:1"
         aria-label="GND" />
      <path
         d="m 97.264062,106.63274 -2.945548,-7.715271 h 1.090369 l 2.444288,6.495711 2.449459,-6.495711 h 1.0852 l -2.940382,7.715271 z m 11.027718,-7.120993 v 1.100703 q -0.5271,-0.49092 -1.12655,-0.733802 -0.59427,-0.242878 -1.26606,-0.242878 -1.32292,0 -2.02571,0.81132 -0.7028,0.80615 -0.7028,2.33576 0,1.52445 0.7028,2.33577 0.70279,0.80615 2.02571,0.80615 0.67179,0 1.26606,-0.24288 0.59945,-0.24288 1.12655,-0.7338 v 1.09037 q -0.54777,0.37207 -1.16272,0.5581 -0.60978,0.18604 -1.29191,0.18604 -1.75182,0 -2.75951,-1.0697 -1.00769,-1.07487 -1.00769,-2.93005 0,-1.86034 1.00769,-2.93004 1.00769,-1.074866 2.75951,-1.074866 0.69247,0 1.30225,0.186034 0.61494,0.180867 1.15238,0.547769 z m 7.3897,0 v 1.100703 q -0.5271,-0.49092 -1.12654,-0.733802 -0.59428,-0.242878 -1.26607,-0.242878 -1.32291,0 -2.02571,0.81132 -0.7028,0.80615 -0.7028,2.33576 0,1.52445 0.7028,2.33577 0.7028,0.80615 2.02571,0.80615 0.67179,0 1.26607,-0.24288 0.59944,-0.24288 1.12654,-0.7338 v 1.09037 q -0.54777,0.37207 -1.16271,0.5581 -0.60978,0.18604 -1.29191,0.18604 -1.75183,0 -2.75951,-1.0697 -1.00769,-1.07487 -1.00769,-2.93005 0,-1.86034 1.00769,-2.93004 1.00768,-1.074866 2.75951,-1.074866 0.69246,0 1.30224,0.186034 0.61495,0.180867 1.15238,0.547769 z"
         id="text3"
         style="font-size:10.5833px;line-height:1.25;stroke:#062b06;stroke-width:0.264583;stroke-opacity:1"
         aria-label="VCC" />
      <path
         d="m 125.453,128.70827 h 1.55545 l 1.96887,5.25031 1.9792,-5.25031 h 1.55545 v 7.71527 h -1.01802 v -6.77476 l -1.98954,5.29165 h -1.04902 l -1.98954,-5.29165 v 6.77476 H 125.453 Z m 12.9604,1.08004 v 2.87837 h 2.87837 v 0.87849 h -2.87837 v 2.87837 h -0.86816 v -2.87837 h -2.87837 v -0.87849 h 2.87837 v -2.87837 z"
         id="text4"
         style="font-size:10.5833px;line-height:1.25;stroke:#062b06;stroke-width:0.264583;stroke-opacity:1"
         aria-label="M+" />
      <path
         d="m 127.86893,155.18235 h 1.55546 l 1.96886,5.25031 1.9792,-5.25031 h 1.55546 v 7.71527 h -1.01802 v -6.77476 l -1.98954,5.29165 h -1.04903 l -0.99476,-2.64582 -0.99477,-2.64583 v 6.77476 h -1.01286 z m 8.60927,4.39249 h 2.78535 v 0.84749 h -2.78535 z"
         id="text5"
         style="font-size:10.5833px;line-height:1.25;stroke:#062b06;stroke-width:0.264583;stroke-opacity:1"
         aria-label="M-"
         sodipodi:nodetypes="cccccccccccccccccccc" />
      <path
         d="m 70.614609,145.50019 v 2.89904 h 1.312577 c 0.485757,0 0.861272,-0.12574 1.126543,-0.37723 0.265271,-0.25149 0.397907,-0.60978 0.397907,-1.07487 0,-0.46164 -0.132636,-0.81821 -0.397907,-1.0697 -0.265271,-0.25149 -0.640786,-0.37724 -1.126543,-0.37724 z m -1.04386,-0.85782 h 2.356437 c 0.864717,0 1.51756,0.19637 1.958531,0.58911 0.444416,0.38929 0.666624,0.96118 0.666624,1.71565 0,0.76137 -0.222208,1.3367 -0.666624,1.72599 -0.440971,0.38929 -1.093814,0.58394 -1.958531,0.58394 h -1.312577 v 3.10058 h -1.04386 z m 5.694724,0 h 1.054196 l 0.811318,3.26077 0.811317,3.26077 1.617467,-6.52154 h 1.173051 l 1.622635,6.52154 1.617467,-6.52154 h 1.059364 l -1.93786,7.71527 h -1.312577 l -1.627803,-6.69725 -1.643305,6.69725 h -1.312577 z m 11.151738,0 h 1.555456 l 1.968865,5.25031 1.979201,-5.25031 h 1.555456 v 7.71527 h -1.018022 v -6.77476 l -1.989537,5.29165 h -1.049028 l -1.989536,-5.29165 v 6.77476 h -1.012855 z"
         id="text6"
         style="font-size:10.5833px;line-height:1.25;stroke:#062b06;stroke-width:0.264583;stroke-opacity:1"
         aria-label="PWM"
         sodipodi:nodetypes="ccsssssccscscsccccccccccccccccccccccccccccccccc" />
      <text
         xml:space="preserve"
         style="font-style:normal;font-variant:normal;font-weight:normal;font-stretch:normal;font-size:9.5816px;font-family:Sans;-inkscape-font-specification:Sans;letter-spacing:-1.06995px;word-spacing:0px;fill:#ff3333;fill-opacity:1;stroke:#660000;stroke-width:0.150891;stroke-linejoin:round;stroke-dasharray:none;stroke-opacity:1"
         x="96.680145"
         y="67.623192"
         id="text17"><tspan
           sodipodi:role="line"
           id="tspan17"
           style="fill:#ff3333;fill-opacity:1;stroke:#660000;stroke-width:0.150891;stroke-dasharray:none;stroke-opacity:1"
           x="96.680145"
           y="67.623192">12V</tspan></text>
    </g>
    <g
       id="g32887"
       style="display:inline;fill:#ff0000"
       transform="matrix(-0.81811394,-0.00530228,0.00530228,-0.81811394,257.93897,292.86927)"
       inkscape:label="motorgris">
      <rect
         style="display:none;fill:#ffffff;fill-opacity:1;stroke:#ffffff;stroke-width:1.94422;stroke-linecap:square;stroke-opacity:1"
         id="rect5225"
         width="389.74847"
         height="266.83832"
         x="-393.97089"
         y="-292.3374"
         transform="rotate(179.62867)"
         ry="3.4884354e-14" />
      <g
         id="g2"
         style="display:inline;fill:#999999"
         transform="matrix(0.44845652,-0.00139878,0.00139878,0.44845652,92.25607,101.31837)">
        <rect
           style="display:inline;fill:#575757;fill-opacity:1;stroke:#333333;stroke-width:2;stroke-dasharray:none"
           id="rect12"
           width="24.7101"
           height="9.2125549"
           x="0.71573782"
           y="136.97345"
           inkscape:label="pico" />
        <path
           id="rect10-2"
           style="display:inline;fill:#999999;stroke:#062b06;stroke-width:2.28078;stroke-dasharray:none;stroke-opacity:1"
           d="m 28.255184,162.73978 c 0.229792,0.006 0.46314,-0.0111 0.696928,-0.0286 h 8.089715 v -42.26249 h -8.089715 c -1.246869,-0.0935 -2.493576,-0.1875 -3.134267,3.33447 -0.177591,0.97624 -0.306875,2.23504 -0.390214,3.61383 h -0.0022 v 0.0375 c -0.135839,2.27459 -0.142542,4.87618 -0.01473,7.13666 a 3.5325412,7.2249102 0 0 0 -3.139179,7.17165 3.5325412,7.2249102 0 0 0 3.12226,7.16975 c -0.180224,3.58778 -0.03383,7.94647 0.424051,10.46349 0.520561,2.86159 1.441572,3.33646 2.437339,3.36374 z"
           inkscape:label="tornillo"
           transform="matrix(-0.94688099,0,0,-0.81207671,223.30509,258.64972)" />
        <path
           id="path10-6"
           style="display:inline;fill:#999999;stroke:#062b06;stroke-width:2;stroke-dasharray:none;stroke-opacity:1"
           d="m 28.255123,120.41952 c -0.995767,0.0273 -1.9165,0.50202 -2.437061,3.36362 -0.177594,0.97626 -0.307334,2.23492 -0.390673,3.61373 h -0.0016 v 0.03 c -0.141743,2.36771 -0.144327,5.09315 0,7.4166 v 13.47256 c -0.229095,3.68804 -0.09122,8.40272 0.392224,11.06031 0.640691,3.52197 1.887307,3.42821 3.134176,3.33468 h 8.089429 v -42.26254 h -8.089429 c -0.233788,-0.0175 -0.467323,-0.0352 -0.697115,-0.0289 z"
           inkscape:label="tornillo" />
        <path
           id="path59"
           style="color:#000000;display:inline;fill:#999999;stroke:#062b06;stroke-width:1.96867;stroke-dasharray:none;stroke-opacity:1"
           d="m 48.008919,208.20538 c -0.328707,0.0123 -0.761433,-0.0219 -1.457762,-0.0682 -0.928438,-0.0618 -2.37405,-0.15556 -3.839993,-0.82767 -1.465941,-0.6721 -2.946061,-1.93686 -3.933451,-4.26563 -0.987391,-2.32878 -1.493701,-5.68169 -1.531469,-8.97117 -0.008,-0.69292 0.0095,-1.37941 0.04336,-2.05547 V 95.072482 h 0.0024 c 3.77e-4,-0.0575 -0.0016,-0.114313 -9.64e-4,-0.171872 0.03777,-3.289475 0.543596,-6.64239 1.530987,-8.971162 0.98739,-2.328771 2.467992,-3.593535 3.933934,-4.265639 1.465942,-0.672104 2.911073,-0.7659 3.839511,-0.82767 0.928438,-0.06177 1.388642,-0.102268 1.757889,-0.03921 0.184623,0.03153 0.354581,0.104826 0.484636,0.206783 0.130055,0.101958 0.219958,0.215123 0.328068,0.343743 0.216218,0.257243 0.58855,0.710715 0.872923,1.589813 0.284374,0.879098 0.499998,2.191668 0.496198,4.259731 -0.0062,3.377007 -0.578683,8.761986 -2.104264,12.868891 v 88.96344 c 1.491901,4.09105 2.053318,9.40331 2.059461,12.74697 0.0038,2.06806 -0.211824,3.38063 -0.496197,4.25973 -0.284373,0.8791 -0.656705,1.33257 -0.872923,1.58982 -0.10811,0.12862 -0.198014,0.24178 -0.328069,0.34374 -0.130055,0.10196 -0.300013,0.17526 -0.484636,0.20678 -0.09231,0.0158 -0.190076,0.0249 -0.299645,0.029 z"
           transform="matrix(1.0726917,0,0,-0.96214004,-3.0159399,282.03557)"
           inkscape:label="tornillo" />
        <rect
           style="display:inline;fill:#cccccc;stroke:#062b06;stroke-width:2;stroke-dasharray:none;stroke-opacity:1"
           id="rect5"
           width="93.764503"
           height="128.54349"
           x="48.523022"
           y="78.297134"
           inkscape:label="rectangulo big" />
        <rect
           style="display:inline;fill:#999999;fill-opacity:1;fill-rule:nonzero;stroke:#062b06;stroke-width:2;stroke-dasharray:none;stroke-opacity:1"
           id="rect14"
           width="50.699371"
           height="118.87405"
           x="143.11839"
           y="83.473015"
           inkscape:label="rectangulo" />
      </g>
    </g>
  </g>
</svg>
